<svg xmlns="http://www.w3.org/2000/svg" viewBox="0 0 32 32" role="img" aria-label="King's Cup">
  <rect width="32" height="32" rx="7" fill="#005cbb" />
  <!-- Crown -->
  <path
    d="M9.5 5.6 L12 2.4 L14.2 4.8 L16 1.6 L17.8 4.8 L20 2.4 L22.5 5.6 L21.6 7.4 L10.4 7.4 Z"
    fill="#ffca28"
  />
  <!-- Spade -->
  <path
    d="M16 8.4
       C 12.5 13.8, 4.6 16.8, 4.6 21.2
       C 4.6 24.9, 8 26.6, 11 25.1
       C 12.3 24.4, 14 23.3, 15 22.1
       C 14.7 25, 13.7 27.3, 11.6 28.7
       L 20.4 28.7
       C 18.3 27.3, 17.3 25, 17 22.1
       C 18 23.3, 19.7 24.4, 21 25.1
       C 24 26.6, 27.4 24.9, 27.4 21.2
       C 27.4 16.8, 19.5 13.8, 16 8.4
       Z"
    fill="#ffffff"
  />
</svg>
